<?xml version="1.0" encoding="utf-8"?>
<!-- Generator: Adobe Illustrator 23.0.1, SVG Export Plug-In . SVG Version: 6.00 Build 0)  -->
<svg version="1.1" id="Layer_1" xmlns="http://www.w3.org/2000/svg" xmlns:xlink="http://www.w3.org/1999/xlink" x="0px" y="0px"
	 viewBox="0 0 512 512" style="enable-background:new 0 0 512 512;" xml:space="preserve">
<path d="M472.7,124.6c-2.8-1.6-16.2-9.3-29.7-17.1s-26.5-15.3-29-16.7s-14.4-8.3-26.5-15.3S363.9,61.9,362,60.8s-5.1-2.9-7-4
	c-9.6-5.6-81.7-47.2-89.6-51.7c-4.9-2.8-9.4-5.1-10-5c-0.5,0-3.1,1.4-5.9,3.1c-2.7,1.7-6.3,3.8-8,4.8c-1.6,0.9-10.6,6.1-20,11.5
	C212.2,24.9,193,35.9,179,44c-14,8.1-42.8,24.7-64,37c-21.2,12.2-48.1,27.7-59.7,34.3L34,127.5V256v128.5l21.3,12.2
	c11.6,6.6,38.5,22.1,59.7,34.4c21.2,12.2,40.1,23.1,42,24.2c1.9,1,12.1,6.9,22.5,13c10.5,6,20.6,11.9,22.5,13
	c1.9,1.1,13.9,7.9,26.6,15.3c12.8,7.3,24.2,13.8,25.6,14.4c2.1,1,4.3,0,19.8-9c9.6-5.5,18.2-10.5,19-11s2.9-1.7,4.5-2.6
	c5.4-3,111.5-64.2,129-74.4c4.4-2.6,17.8-10.3,29.7-17.1l21.7-12.4L478,256V127.5L472.7,124.6z M435,255.9l-0.1,103.6l-17.5,10
	c-9.6,5.5-20.4,11.7-23.9,13.8c-14.1,8.2-99.7,57.6-104,60c-1.3,0.7-3,1.7-3.6,2.1c-0.6,0.4-7.6,4.4-15.3,8.9
	c-12.5,7.3-14.3,8.1-16,7.3c-1.1-0.5-10.3-5.7-20.6-11.6c-10.2-6-19.9-11.4-21.4-12.3c-1.5-0.9-9.7-5.6-18.1-10.5
	c-8.4-4.9-16.6-9.7-18.1-10.5c-1.5-0.9-16.8-9.7-33.9-19.5c-17.1-9.9-38.8-22.4-48.1-27.7L77,359.6V255.9V152.3l17.2-9.8
	c9.4-5.3,31-17.8,48.1-27.7c17.1-9.9,40.3-23.3,51.6-29.8c11.3-6.5,26.8-15.4,34.3-19.8c7.6-4.4,14.8-8.5,16.1-9.3
	c1.4-0.8,4.3-2.5,6.5-3.9c2.3-1.4,4.4-2.5,4.8-2.5c0.5-0.1,4.1,1.8,8.1,4c6.4,3.6,64.5,37.2,72.2,41.7c1.5,0.9,4.1,2.3,5.6,3.2
	c1.5,0.9,10.8,6.2,20.6,11.9c9.8,5.6,19.4,11.2,21.4,12.3c2,1.1,12.5,7.2,23.4,13.5s21.7,12.5,23.9,13.8l4.3,2.3V255.9z"/>
</svg>
